<svg width="1200" height="300" viewBox="0 0 1200 300" xmlns="http://www.w3.org/2000/svg">
  <!-- Background gradient -->
  <defs>
    <linearGradient id="bg-gradient" x1="0%" y1="0%" x2="100%" y2="100%">
      <stop offset="0%" stop-color="#3498db" />
      <stop offset="100%" stop-color="#2c3e50" />
    </linearGradient>
  </defs>
  
  <!-- Background rectangle -->
  <rect width="1200" height="300" fill="url(#bg-gradient)" />
  
  <!-- Road -->
  <rect x="0" y="200" width="1200" height="100" fill="#333" />
  
  <!-- Road markings -->
  <rect x="50" y="245" width="100" height="10" fill="#fff" />
  <rect x="250" y="245" width="100" height="10" fill="#fff" />
  <rect x="450" y="245" width="100" height="10" fill="#fff" />
  <rect x="650" y="245" width="100" height="10" fill="#fff" />
  <rect x="850" y="245" width="100" height="10" fill="#fff" />
  <rect x="1050" y="245" width="100" height="10" fill="#fff" />
  
  <!-- Car silhouettes -->
  <!-- Car 1 -->
  <g transform="translate(200, 180) scale(0.5)">
    <rect x="0" y="0" width="200" height="40" rx="10" fill="#e74c3c" />
    <rect x="30" y="-20" width="140" height="30" rx="10" fill="#e74c3c" />
    <circle cx="50" cy="40" r="20" fill="#333" />
    <circle cx="150" cy="40" r="20" fill="#333" />
  </g>
  
  <!-- Car 2 -->
  <g transform="translate(500, 170) scale(0.6)">
    <rect x="0" y="0" width="220" height="50" rx="10" fill="#3498db" />
    <rect x="40" y="-30" width="140" height="40" rx="10" fill="#3498db" />
    <circle cx="60" cy="50" r="25" fill="#333" />
    <circle cx="160" cy="50" r="25" fill="#333" />
  </g>
  
  <!-- Car 3 -->
  <g transform="translate(800, 175) scale(0.55)">
    <rect x="0" y="0" width="240" height="45" rx="10" fill="#2ecc71" />
    <rect x="50" y="-25" width="140" height="35" rx="10" fill="#2ecc71" />
    <circle cx="70" cy="45" r="22" fill="#333" />
    <circle cx="170" cy="45" r="22" fill="#333" />
  </g>
  
  <!-- Decorative elements -->
  <circle cx="100" cy="80" r="20" fill="#f39c12" opacity="0.7" /> <!-- Sun -->
  <path d="M 0,150 Q 300,100 600,150 T 1200,150" stroke="#ecf0f1" stroke-width="2" fill="none" /> <!-- Cloud outline -->
</svg>