<svg xmlns="http://www.w3.org/2000/svg" width="400" height="200" viewBox="0 0 400 200">
  <!-- Bus Body -->
  <rect x="30" y="80" width="340" height="70" rx="10" fill="#4a5568" />
  <rect x="30" y="60" width="340" height="30" rx="5" fill="#4a5568" />
  
  <!-- Windows -->
  <rect x="50" y="70" width="22" height="20" rx="2" fill="#a0aec0" />
  <rect x="80" y="70" width="22" height="20" rx="2" fill="#a0aec0" />
  <rect x="110" y="70" width="22" height="20" rx="2" fill="#a0aec0" />
  <rect x="140" y="70" width="22" height="20" rx="2" fill="#a0aec0" />
  <rect x="170" y="70" width="22" height="20" rx="2" fill="#a0aec0" />
  <rect x="200" y="70" width="22" height="20" rx="2" fill="#a0aec0" />
  <rect x="230" y="70" width="22" height="20" rx="2" fill="#a0aec0" />
  <rect x="260" y="70" width="22" height="20" rx="2" fill="#a0aec0" />
  <rect x="290" y="70" width="22" height="20" rx="2" fill="#a0aec0" />
  <rect x="320" y="70" width="22" height="20" rx="2" fill="#a0aec0" />
  
  <!-- Door -->
  <rect x="60" y="110" width="30" height="40" rx="2" fill="#2d3748" />
  
  <!-- Wheels -->
  <circle cx="80" cy="150" r="15" fill="#1a202c" />
  <circle cx="80" cy="150" r="7" fill="#718096" />
  <circle cx="320" cy="150" r="15" fill="#1a202c" />
  <circle cx="320" cy="150" r="7" fill="#718096" />
  <circle cx="270" cy="150" r="15" fill="#1a202c" />
  <circle cx="270" cy="150" r="7" fill="#718096" />
  
  <!-- Headlights -->
  <rect x="30" y="100" width="10" height="10" rx="2" fill="#faf089" />
  <rect x="360" y="100" width="10" height="10" rx="2" fill="#f56565" />
  
  <!-- NON-AC Indicator -->
  <rect x="200" y="40" width="60" height="20" rx="5" fill="#ed8936" />
  <text x="230" y="55" font-family="Arial" font-size="10" fill="white" text-anchor="middle">NON-AC</text>
  
  <!-- 33 Indicator -->
  <rect x="140" y="40" width="40" height="20" rx="5" fill="#38a169" />
  <text x="160" y="55" font-family="Arial" font-size="12" fill="white" text-anchor="middle">33</text>
  
  <!-- Text Labels -->
  <text x="200" y="180" font-family="Arial" font-size="16" font-weight="bold" fill="#2d3748" text-anchor="middle">Mini Bus 33 Seater (Non-AC)</text>
  <text x="200" y="195" font-family="Arial" font-size="14" fill="#4a5568" text-anchor="middle">33 seats</text>
</svg>